<?xml version="1.0" encoding="utf-8"?>
<!-- Generator: Adobe Illustrator 27.2.0, SVG Export Plug-In . SVG Version: 6.00 Build 0)  -->
<svg version="1.1" id="Слой_1" xmlns="http://www.w3.org/2000/svg" xmlns:xlink="http://www.w3.org/1999/xlink" x="0px" y="0px"
	 viewBox="0 0 237.6 376.8" style="enable-background:new 0 0 237.6 376.8;" xml:space="preserve">
<style type="text/css">
	.st0{stroke:#F18918;stroke-width:8;stroke-miterlimit:10;}
</style>
<path class="st0" d="M232,362.8c-2.92,2.78-10.26,8.95-20.8,9.6c-13.94,0.86-24-8.52-27.73-12c-5.89-5.49-3.48-6.33-10.14-12.8
	c-3.8-3.7-14.6-14.19-29.86-15.47c-4.66-0.39-7.94,0.23-10.14,0.54c-23.76,3.31-49.67-11.88-57.6-16.54
	c-12.1-7.1-30.83-18.09-41.6-40c-16.14-32.86-3.99-69.16,0.54-82.66c7.99-23.86,15.74-25.12,18.13-45.87
	c0.76-6.63,3.36-32.34-12.27-53.33c-3.95-5.31-7.53-8.25-9.6-10.14C12.66,67.47,3.62,33.91,3.81,4.8h226.44
	C230.83,124.13,231.42,243.47,232,362.8z"/>
</svg>
