<?xml version="1.0" encoding="utf-8"?>
<!-- Generator: Adobe Illustrator 27.2.0, SVG Export Plug-In . SVG Version: 6.00 Build 0)  -->
<svg version="1.1" id="Слой_1" xmlns="http://www.w3.org/2000/svg" xmlns:xlink="http://www.w3.org/1999/xlink" x="0px" y="0px"
	 viewBox="0 0 358.9 364.6" style="enable-background:new 0 0 358.9 364.6;" xml:space="preserve">
<style type="text/css">
	.st0{fill:#FF8C00;}
</style>
<path class="st0" d="M234.8,234.7c-0.3,3.8-1,13.9-2.6,34.1c-4.2,54.5-0.8,89.5-12.3,93.3c-0.7,0.2-3.1,0.9-5.3-0.1
	c-5.7-2.4-5.9-12.7-6.6-21.4c-1.4-16.5-3.5-42.6-17.1-49.8c-1.4-0.8-6.3-3.4-10.5-1.5c-12.4,5.6-4.7,44.9-12.2,46.3
	c-0.3,0.1-0.5,0-0.7,0c-7.1-1-5.1-28.1-13.9-30.6c-2.8-0.8-4.6,1.4-7.3-0.2c-2.8-1.6-2.1-4.6-5.3-7.9c-1.5-1.5-5.1-4.4-7.3-3.3
	c-3.5,1.7,0.3,12.2-4.3,14.9c-0.2,0.1-1.6,0.9-3.1,0.5c-3.8-1.2-2.9-10.2-4.3-32.1c-2-30.3-2.2-32.2-2.2-33.2c0,0,0-0.2,0-0.4
	c0-3.4,4.2-62.7-5.4-74.2c-0.5-0.6-1.8-2.2-3.1-1.9c-2.2,0.4-3.1,5.9-3.5,8.7c-1,6.3,0,9.5-2.1,11.1c-1.2,0.9-2.9,0.9-3.6,0.7
	c-6.7-1.7-2.5-33.8-3.9-73.2c-0.8-21.5-1.3-33.4-6.5-49.1c-2.9-8.8-7.8-23.6-19.9-37C51.1,5.4,22.6,1,12-0.1
	c111.2,0,222.4,0,333.5,0c-12.4,1.1-32.7,5.2-47.2,22c-0.3,0.4-1.6,1.9-3.1,3.9c-11.2,15.4-12.7,33.3-12.7,64.6
	c0,36.2,2,56.7-4.5,58.5c-0.9,0.3-1.7,0-2-0.1c-7.3-2.4-0.9-27.6-5.1-60.9c-0.6-4.8-3.9-30.8-10.4-31.2c-4-0.3-10,9-12.7,16.9
	c-0.1,0.4-0.2,0.7-0.4,1.4c-3.5,11.8-3.7,20.8-3.8,24C243.6,102,240.7,146.2,234.8,234.7z"/>
<path class="st0" d="M11.9,0.5"/>
</svg>
